<svg id="_x31__x2C_5" enable-background="new 0 0 24 24" height="512" viewBox="0 0 24 24" width="512" xmlns="http://www.w3.org/2000/svg"><path fill="#fff" d="m13.25 24h-2.5c-3.722 0-6.75-3.028-6.75-6.75v-5.5c0-3.722 3.028-6.75 6.75-6.75h2.5c3.722 0 6.75 3.028 6.75 6.75v5.5c0 3.722-3.028 6.75-6.75 6.75zm-2.5-17.5c-2.895 0-5.25 2.355-5.25 5.25v5.5c0 2.895 2.355 5.25 5.25 5.25h2.5c2.895 0 5.25-2.355 5.25-5.25v-5.5c0-2.895-2.355-5.25-5.25-5.25z"/><path fill="#fff" d="m15.97 7.15c-.118 0-.238-.028-.35-.087-.366-.194-.506-.647-.313-1.014.125-.235.193-.519.193-.799 0-.965-.785-1.75-1.75-1.75h-3.5c-.47 0-.911.181-1.24.51s-.51.77-.51 1.24c0 .28.068.564.193.799.193.366.054.82-.313 1.014-.366.194-.819.053-1.013-.313-.24-.453-.367-.972-.367-1.5 0-.871.337-1.688.95-2.3s1.429-.95 2.3-.95h3.5c1.792 0 3.25 1.458 3.25 3.25 0 .528-.127 1.047-.367 1.5-.134.255-.394.4-.663.4z"/><path fill="#fff" d="m10.273 3.25c-.414 0-.75-.336-.75-.75v-1.659c0-.414.336-.75.75-.75s.75.336.75.75v1.659c0 .414-.336.75-.75.75z"/><path fill="#fff" d="m13.773 3.25c-.414 0-.75-.336-.75-.75v-1.659c0-.414.336-.75.75-.75s.75.336.75.75v1.659c0 .414-.336.75-.75.75z"/><path fill="#fff" d="m12 19c-.414 0-.75-.336-.75-.75v-7.5c0-.414.336-.75.75-.75s.75.336.75.75v7.5c0 .414-.336.75-.75.75z"/><path fill="#fff" d="m23.25 15.25h-3.75c-.414 0-.75-.336-.75-.75s.336-.75.75-.75h3.75c.414 0 .75.336.75.75s-.336.75-.75.75z"/><path fill="#fff" d="m4.5 15.25h-3.75c-.414 0-.75-.336-.75-.75s.336-.75.75-.75h3.75c.414 0 .75.336.75.75s-.336.75-.75.75z"/><path fill="#fff" d="m1.75 23c-.229 0-.455-.104-.603-.303-.247-.333-.178-.802.155-1.049l3.23-2.4c.332-.246.802-.178 1.049.155s.178.802-.155 1.049l-3.23 2.4c-.133.1-.29.148-.446.148z"/><path fill="#fff" d="m19.021 9.9c-.229 0-.455-.104-.603-.303-.247-.333-.178-.802.155-1.049l3.23-2.4c.332-.246.802-.178 1.049.155s.178.802-.155 1.049l-3.23 2.4c-.134.1-.291.148-.446.148z"/><path fill="#fff" d="m22.25 23c-.156 0-.313-.048-.447-.148l-3.23-2.4c-.333-.247-.402-.717-.155-1.049.248-.333.718-.4 1.049-.155l3.23 2.4c.333.247.402.717.155 1.049-.147.199-.373.303-.602.303z"/><path fill="#fff" d="m4.979 9.9c-.156 0-.313-.048-.447-.148l-3.23-2.4c-.332-.247-.401-.717-.154-1.049.247-.333.718-.4 1.049-.155l3.23 2.4c.333.247.402.717.155 1.049-.147.198-.374.303-.603.303z"/></svg>